<svg width="36" height="36" viewBox="0 0 36 36" fill="none" xmlns="http://www.w3.org/2000/svg">
<path fill-rule="evenodd" clip-rule="evenodd" d="M15.7315 5.68153C17.2084 4.20469 19.2114 3.375 21.3 3.375H25.35C25.9713 3.375 26.475 3.87868 26.475 4.5V9.9C26.475 10.5213 25.9713 11.025 25.35 11.025H21.3C21.2403 11.025 21.1831 11.0487 21.1409 11.0909C21.0987 11.1331 21.075 11.1903 21.075 11.25V14.175H25.35C25.6964 14.175 26.0235 14.3346 26.2367 14.6077C26.4499 14.8807 26.5254 15.2368 26.4414 15.5729L25.0914 20.9729C24.9662 21.4737 24.5162 21.825 24 21.825H21.075V31.5C21.075 32.1213 20.5713 32.625 19.95 32.625H14.55C13.9287 32.625 13.425 32.1213 13.425 31.5V21.825H10.5C9.87868 21.825 9.375 21.3213 9.375 20.7V15.3C9.375 14.6787 9.87868 14.175 10.5 14.175H13.425V11.25C13.425 9.16142 14.2547 7.15838 15.7315 5.68153ZM21.3 5.625C19.8082 5.625 18.3774 6.21763 17.3225 7.27252C16.2676 8.32742 15.675 9.75816 15.675 11.25V15.3C15.675 15.9213 15.1713 16.425 14.55 16.425H11.625V19.575H14.55C15.1713 19.575 15.675 20.0787 15.675 20.7V30.375H18.825V20.7C18.825 20.0787 19.3287 19.575 19.95 19.575H23.1216L23.9091 16.425H19.95C19.3287 16.425 18.825 15.9213 18.825 15.3V11.25C18.825 10.5936 19.0858 9.96406 19.5499 9.49991C20.0141 9.03576 20.6436 8.775 21.3 8.775H24.225V5.625H21.3Z" fill="white"/>
</svg>
