<svg width="64" height="64" viewBox="0 0 64 64" fill="none" xmlns="http://www.w3.org/2000/svg">
<path d="M35.8583 16H28.1418C22.7397 16 20.0386 16 17.9753 17.0463C16.1604 17.9667 14.6848 19.4353 13.76 21.2417C13.1793 22.3761 12.9193 23.7041 12.803 25.572C12.7473 26.4652 13.494 27.1791 14.3392 27.4812C16.2004 28.1466 17.5315 29.9186 17.5315 32C17.5315 34.0814 16.2004 35.8534 14.3392 36.5188C13.494 36.8209 12.7473 37.5348 12.803 38.428C12.9193 40.2959 13.1793 41.6239 13.76 42.7583C14.6848 44.5647 16.1604 46.0333 17.9753 46.9537C20.0386 48 22.7397 48 28.1418 48H35.8583M35.8583 16C41.2604 16 43.9615 16 46.0248 17.0463C47.8397 17.9667 49.3153 19.4353 50.2401 21.2417C50.8208 22.3761 51.0808 23.7041 51.1971 25.5719C51.2528 26.4652 50.5061 27.1791 49.6609 27.4812C47.7997 28.1466 46.4686 29.9186 46.4686 32C46.4686 34.0814 47.7997 35.8534 49.6609 36.5188C50.5061 36.8209 51.2528 37.5348 51.1971 38.428C51.0808 40.2959 50.8208 41.6239 50.2401 42.7583C49.3153 44.5647 47.8397 46.0333 46.0248 46.9537C43.9615 48 41.2604 48 35.8583 48M35.8583 16V22.4M35.8583 48V41.6M35.8583 28.8V35.2" stroke="#44D787" stroke-width="2" stroke-linecap="round"/>
</svg>
